<svg width="60" height="60" viewBox="0 0 60 60" fill="none" xmlns="http://www.w3.org/2000/svg">
<rect x="4" y="4" width="52" height="52" rx="4" stroke="#444" stroke-width="4"/>
<rect x="20" y="9" width="31" height="5" rx="2" fill="#444"/>
<rect x="13" y="16" width="8" height="5" rx="2" fill="#444"/>
<rect x="23" y="16" width="28" height="5" rx="2" fill="#444"/>
<rect x="13" y="23" width="8" height="5" rx="2" fill="#444"/>
<rect x="23" y="23" width="28" height="5" rx="2" fill="#444"/>
<rect x="9" y="9" width="9" height="5" rx="2" fill="#444"/>
<rect x="20" y="32" width="31" height="5" rx="2" fill="#444"/>
<rect x="13" y="39" width="8" height="5" rx="2" fill="#444"/>
<rect x="23" y="39" width="28" height="5" rx="2" fill="#444"/>
<rect x="13" y="46" width="8" height="5" rx="2" fill="#444"/>
<rect x="23" y="46" width="28" height="5" rx="2" fill="#444"/>
<rect x="9" y="32" width="9" height="5" rx="2" fill="#444"/>
</svg>
